<?xml version="1.0" encoding="utf-8"?>
<!-- Generator: Adobe Illustrator 22.0.1, SVG Export Plug-In . SVG Version: 6.00 Build 0)  -->
<svg version="1.1" id="Calque_1" xmlns="http://www.w3.org/2000/svg" xmlns:xlink="http://www.w3.org/1999/xlink" x="0px" y="0px"
	 viewBox="0 0 94.8 71.7" style="enable-background:new 0 0 94.8 71.7;" xml:space="preserve">
<path d="M19.7,35.3c0.2,3.7,0.4,7.4,0.5,11.6c24.7,0,49.1,0,73.9,0c0,4.5,0,8.6,0,13.2c-24.7,0-49,0-73.9,0
	c-0.2,4.2-0.4,7.9-0.6,12.1c-1.5-0.6-2.6-0.7-3.2-1.2C11.4,66,6.3,61,1.4,55.8c-0.8-0.8-1.3-3.2-0.7-3.7c5.7-6,11.5-11.7,17.4-17.5
	C18.6,34.8,19.1,35.1,19.7,35.3z"/>
<path d="M74.1,26.3c-25,0-49.2,0-73.8,0c0-4.5,0-8.5,0-13.1c24.4,0,48.8,0,73.5,0c0.3-4.3,0.5-8.1,0.9-13.4c2.5,2.2,4,3.4,5.4,4.7
	c4.2,4.1,8.2,8.3,12.4,12.3c2.1,2,2.5,3.6,0.2,5.8c-4.8,4.6-9.4,9.4-14.2,14c-0.7,0.7-1.9,1-2.9,1.4c-0.4-1-1.2-2-1.3-3
	C73.9,32.3,74.1,29.6,74.1,26.3z"/>
</svg>
