<?xml version="1.0" encoding="utf-8"?>
<!-- Generator: Adobe Illustrator 22.0.1, SVG Export Plug-In . SVG Version: 6.00 Build 0)  -->
<svg version="1.1" id="Calque_1" xmlns="http://www.w3.org/2000/svg" xmlns:xlink="http://www.w3.org/1999/xlink" x="0px" y="0px"
	 viewBox="0 0 538.2 489.5" style="enable-background:new 0 0 538.2 489.5;" xml:space="preserve">
<style type="text/css">
	.st0{fill:#FFFFFF;}
	.st1{fill:none;stroke:#000000;stroke-width:5;stroke-miterlimit:10;}
</style>
<g>
	<circle class="st0" cx="268.5" cy="207.5" r="202.5"/>
	<path d="M268.5,8c26.9,0,53.1,5.3,77.7,15.7c23.8,10,45.1,24.4,63.4,42.8s32.7,39.7,42.8,63.4c10.4,24.6,15.7,50.7,15.7,77.7
		s-5.3,53.1-15.7,77.7c-10,23.8-24.4,45.1-42.8,63.4s-39.7,32.7-63.4,42.8c-24.6,10.4-50.7,15.7-77.7,15.7s-53.1-5.3-77.7-15.7
		c-23.8-10-45.1-24.4-63.4-42.8s-32.7-39.7-42.8-63.4C74.3,260.6,69,234.4,69,207.5s5.3-53.1,15.7-77.7c10-23.8,24.4-45.1,42.8-63.4
		s39.7-32.7,63.4-42.8C215.4,13.3,241.6,8,268.5,8 M268.5,2C155,2,63,94,63,207.5S155,413,268.5,413S474,321,474,207.5
		S382,2,268.5,2L268.5,2z"/>
</g>
<g>
	<path d="M268,8c29.1,0,56.7,20.4,77.7,57.5c21.5,38,33.3,88.6,33.3,142.5s-11.8,104.5-33.3,142.5c-21,37.1-48.6,57.5-77.7,57.5
		s-56.7-20.4-77.7-57.5c-21.5-38-33.3-88.6-33.3-142.5s11.8-104.5,33.3-142.5C211.3,28.4,238.9,8,268,8 M268,3
		c-64.1,0-116,91.8-116,205s51.9,205,116,205s116-91.8,116-205S332.1,3,268,3L268,3z"/>
</g>
<g>
	<line class="st1" x1="267.5" y1="3.5" x2="267.5" y2="413.5"/>
</g>
<g>
	<line class="st1" x1="472.5" y1="208.5" x2="62.5" y2="208.5"/>
</g>
<path class="st1" d="M429.3,79.6c-37.5,27-95.8,44.4-161.3,44.4c-65.1,0-123.1-17.2-160.7-44"/>
<path class="st1" d="M108.7,336.7C146.3,310.1,204.1,293,269,293c64.6,0,122.1,16.9,159.7,43.3"/>
<g>
	<path d="M32.3,473l-3-10.2H14.5l-3,10.2H2.2l14.4-43h10.6l14.4,43H32.3z M27.3,455.2c-2.7-9.2-4.3-14.5-4.6-15.7
		c-0.3-1.2-0.6-2.2-0.7-2.9c-0.6,2.5-2.4,8.7-5.3,18.5H27.3z"/>
	<path d="M75.4,437.1c-3.3,0-5.8,1.3-7.6,3.9s-2.7,6.1-2.7,10.7c0,9.6,3.4,14.3,10.2,14.3c2.9,0,6.3-0.8,10.4-2.3v7.6
		c-3.3,1.5-7.1,2.2-11.2,2.2c-5.9,0-10.5-1.9-13.6-5.7c-3.1-3.8-4.7-9.2-4.7-16.3c0-4.5,0.8-8.4,2.3-11.7c1.5-3.3,3.8-5.9,6.6-7.7
		c2.9-1.8,6.3-2.7,10.2-2.7c4,0,7.9,1,11.9,3l-2.8,7.4c-1.5-0.8-3.1-1.4-4.6-2C78.4,437.4,76.9,437.1,75.4,437.1z"/>
	<path d="M130.8,473l-3-10.2H113l-3,10.2h-9.3l14.4-43h10.6l14.4,43H130.8z M125.8,455.2c-2.7-9.2-4.3-14.5-4.6-15.7
		c-0.3-1.2-0.6-2.2-0.7-2.9c-0.6,2.5-2.4,8.7-5.3,18.5H125.8z"/>
	<path d="M190.5,451.2c0,7.1-1.9,12.5-5.7,16.2c-3.8,3.8-9.3,5.6-16.5,5.6h-11.5v-42.8h12.8c6.6,0,11.8,1.8,15.5,5.5
		S190.5,444.5,190.5,451.2z M181.5,451.4c0-9.2-3.9-13.8-11.6-13.8h-4.6v27.9h3.7C177.4,465.5,181.5,460.8,181.5,451.4z"/>
	<path d="M233.5,473h-22.7v-42.8h22.7v4.4h-18v13.8h16.9v4.4h-16.9v15.8h18V473z"/>
	<path d="M260.6,456.6L250,440.9h5.3l8.1,12.3l8-12.3h5.2L266,456.6l11.2,16.4h-5.2l-8.6-13l-8.6,13h-5.2L260.6,456.6z"/>
	<path d="M306.8,473.6c-4.4,0-7.8-1.4-10.3-4.3s-3.6-6.9-3.6-12.1c0-5.4,1.2-9.5,3.7-12.5c2.5-2.9,6-4.4,10.5-4.4
		c1.5,0,2.9,0.2,4.4,0.5c1.5,0.3,2.6,0.7,3.5,1.2l-1.4,4.1c-1-0.4-2.1-0.8-3.3-1.1c-1.2-0.3-2.3-0.4-3.2-0.4
		c-6.2,0-9.3,4.2-9.3,12.5c0,3.9,0.8,7,2.3,9.1c1.5,2.1,3.8,3.2,6.7,3.2c2.5,0,5.2-0.6,7.8-1.7v4.3
		C312.5,473,309.9,473.6,306.8,473.6z"/>
	<path d="M354.1,473v-20.8c0-2.6-0.6-4.6-1.7-5.9c-1.1-1.3-2.9-1.9-5.3-1.9c-3.2,0-5.6,0.9-7,2.8c-1.5,1.8-2.2,4.8-2.2,9V473h-4.6
		v-45.6h4.6v13.8c0,1.7-0.1,3-0.2,4.1h0.3c0.9-1.5,2.2-2.8,3.9-3.6s3.6-1.3,5.8-1.3c3.7,0,6.5,0.9,8.4,2.8c1.9,1.9,2.8,4.8,2.8,8.9
		V473H354.1z"/>
	<path d="M398.4,473l-0.9-4.6h-0.2c-1.5,2-3,3.4-4.6,4.1s-3.4,1.1-5.7,1.1c-3,0-5.4-0.8-7.1-2.5c-1.7-1.6-2.6-4-2.6-7
		c0-6.5,4.9-9.9,14.8-10.2l5.2-0.2v-2c0-2.5-0.5-4.4-1.5-5.6c-1-1.2-2.7-1.8-4.9-1.8c-2.5,0-5.4,0.8-8.6,2.5l-1.4-3.7
		c1.5-0.9,3.2-1.5,4.9-2c1.8-0.5,3.6-0.7,5.4-0.7c3.6,0,6.3,0.8,8.1,2.5s2.6,4.4,2.6,8.2V473H398.4z M387.9,469.6
		c2.9,0,5.1-0.8,6.8-2.5c1.6-1.7,2.5-4,2.5-7v-2.9l-4.6,0.2c-3.7,0.1-6.3,0.7-8,1.8s-2.4,2.7-2.4,5c0,1.8,0.5,3.1,1.5,4
		C384.7,469.1,386.1,469.6,387.9,469.6z"/>
	<path d="M443.7,473v-20.8c0-2.6-0.6-4.6-1.7-5.9s-2.9-1.9-5.3-1.9c-3.2,0-5.5,0.9-7,2.7c-1.5,1.8-2.2,4.8-2.2,9V473h-4.6v-32.1h3.8
		l0.8,4.4h0.2c0.9-1.6,2.3-2.8,4-3.7s3.6-1.3,5.7-1.3c3.7,0,6.4,0.9,8.3,2.8c1.9,1.9,2.8,4.8,2.8,9V473H443.7z"/>
	<path d="M494.2,440.9v3.1l-5.7,0.7c0.5,0.7,1,1.6,1.4,2.7c0.4,1.1,0.6,2.3,0.6,3.7c0,3.1-1,5.7-3.1,7.5c-2,1.9-4.8,2.8-8.4,2.8
		c-0.9,0-1.8-0.1-2.6-0.2c-2,1.1-3,2.5-3,4.1c0,0.9,0.3,1.5,1,1.9s1.9,0.6,3.5,0.6h5.4c3.3,0,5.8,0.7,7.6,2.2
		c1.8,1.5,2.7,3.6,2.7,6.4c0,3.6-1.4,6.3-4.1,8.1c-2.7,1.9-6.7,2.8-11.9,2.8c-4,0-7.1-0.8-9.2-2.3s-3.2-3.8-3.2-6.6
		c0-2,0.6-3.6,1.8-5.1s2.9-2.4,5-2.9c-0.8-0.4-1.4-0.9-2-1.7s-0.8-1.7-0.8-2.7c0-1.2,0.3-2.2,0.9-3.1s1.5-1.7,2.8-2.5
		c-1.6-0.7-2.9-1.8-3.9-3.5c-1-1.6-1.5-3.5-1.5-5.6c0-3.5,1-6.2,3-8.1s4.8-2.9,8.5-2.9c1.6,0,3,0.2,4.3,0.6H494.2z M469.8,478.4
		c0,1.7,0.7,3.1,2.1,4s3.4,1.3,6,1.3c3.9,0,6.8-0.6,8.6-1.8s2.8-2.9,2.8-5c0-1.7-0.5-2.9-1.5-3.6s-2.9-1-5.8-1h-5.5
		c-2.1,0-3.7,0.5-4.9,1.6C470.4,474.9,469.8,476.4,469.8,478.4z M472.3,451.2c0,2.2,0.6,3.9,1.8,5.1c1.2,1.2,2.9,1.7,5,1.7
		c4.5,0,6.8-2.3,6.8-6.9c0-4.8-2.3-7.2-6.9-7.2c-2.2,0-3.8,0.6-5,1.8C472.9,446.9,472.3,448.7,472.3,451.2z"/>
	<path d="M524.8,473.6c-4.5,0-8.1-1.4-10.7-4.3c-2.6-2.9-3.9-6.9-3.9-12c0-5.2,1.2-9.3,3.6-12.3c2.4-3,5.7-4.6,9.8-4.6
		c3.8,0,6.9,1.3,9.1,4c2.2,2.6,3.3,6.1,3.3,10.5v3.1h-21c0.1,3.8,1,6.6,2.7,8.6c1.7,2,4.1,2.9,7.3,2.9c3.3,0,6.5-0.7,9.8-2.2v4.3
		c-1.6,0.7-3.2,1.3-4.6,1.6C528.6,473.4,526.8,473.6,524.8,473.6z M523.5,444.4c-2.5,0-4.4,0.8-5.9,2.5s-2.3,4-2.6,7h16
		c0-3.1-0.7-5.4-2-7C527.8,445.2,525.9,444.4,523.5,444.4z"/>
</g>
</svg>
