<?xml version="1.0" encoding="utf-8"?>
<!-- Generator: Adobe Illustrator 22.0.1, SVG Export Plug-In . SVG Version: 6.00 Build 0)  -->
<svg version="1.1" id="Calque_1" xmlns="http://www.w3.org/2000/svg" xmlns:xlink="http://www.w3.org/1999/xlink" x="0px" y="0px"
	 viewBox="0 0 78.9 80.4" style="enable-background:new 0 0 78.9 80.4;" xml:space="preserve">
<path d="M14.5,16.4C17,21,19.4,25.6,22.3,30c0.9,1.5,3,2.7,4.7,3c5.9,1.2,11.4,3,17.9,1.9c9.8-1.7,15.2-6.8,17.6-16
	c0.2-0.9,0.6-1.8,1-2.6l-0.1,0c7.4-0.9,8.7,0.3,8.7,7.9c0,10.4-0.6,20.9,0.2,31.3c0.4,5.6,3,11.1,4.9,16.5c0.9,2.8,2.4,5.7-1.4,7.2
	c-3.4,1.3-4.5-1.7-5.6-4.1c-1.9-4.6-3.9-9.1-6.1-14.4c-1,4.7-2.1,9.1-2.9,13.5c-0.5,2.7-1.2,5.8-4.6,5.3c-3.6-0.6-3.7-3.5-2.7-6.6
	c2-6.5,3.8-13,5.4-19.5c1.5-6,2.6-12,3.3-18.1c-7.3,5-14.9,5.7-22.9,5.8c-8,0.1-15.6-0.8-23.8-6.7c1.2,6.8,1.9,12.5,3.3,18.1
	c1.7,6.9,4.1,13.6,5.9,20.4c0.7,2.7,1,6.2-2.9,6.8c-3.5,0.5-4-2.7-4.5-5.4c-0.8-4.1-1.7-8.1-2.8-13.4c-2.5,5.7-4.4,10.2-6.4,14.8
	c-1.1,2.5-2.3,5.2-5.7,3.7c-3.4-1.5-2.5-4.3-1.2-6.8c5-9.2,6.3-19,5.3-29.4c-0.6-6.8-0.2-13.7-0.1-20.5c0.1-5.9,1.7-7,7.9-6.1
	C14.6,16.5,14.5,16.4,14.5,16.4z"/>
<path d="M14.6,16.5c-0.9-0.7-1.8-1.3-2.8-2C8.3,12.2,7,8.9,8.4,5c1.3-3.9,4.4-5.8,8.6-5.3c4.2,0.5,6.6,3.2,7,7.2
	c0.4,4.1-1.8,6.9-5.8,8.3c-1.2,0.4-2.5,0.8-3.7,1.2C14.5,16.4,14.6,16.5,14.6,16.5z"/>
<path d="M63.4,16.3c-4.3-1.5-8.6-2.7-8.5-8.6c0-4.2,1.9-7,6-7.9c4-0.9,7.3,0.5,9,4.3c1.7,3.7,0.9,7.2-2.4,9.7
	c-1.3,1-2.8,1.6-4.3,2.4C63.2,16.4,63.4,16.3,63.4,16.3z"/>
</svg>
